<svg viewBox="0 0 80 100" xmlns="http://www.w3.org/2000/svg">
  <defs>
    <linearGradient id="coffeeGradient" x1="0%" y1="0%" x2="100%" y2="100%">
      <stop offset="0%" style="stop-color:#8B4513;stop-opacity:1" />
      <stop offset="50%" style="stop-color:#654321;stop-opacity:1" />
      <stop offset="100%" style="stop-color:#DAA520;stop-opacity:1" />
    </linearGradient>
  </defs>

  <!-- Coffee cup base -->
  <ellipse cx="40" cy="85" rx="25" ry="8" fill="url(#coffeeGradient)"/>
  <ellipse cx="40" cy="82" rx="23" ry="6" fill="#8B4513"/>

  <!-- Cup body -->
  <path d="M25,70 Q20,30 30,15 L50,15 Q60,30 55,70 Z"
        fill="url(#coffeeGradient)"
        stroke="#654321"
        stroke-width="2"/>

  <!-- Coffee inside -->
  <ellipse cx="40" cy="65" rx="15" ry="8" fill="#2F1B14"/>
  <ellipse cx="40" cy="60" rx="12" ry="5" fill="#1a0f0a"/>

  <!-- Steam -->
  <path d="M35,45 Q32,35 35,30 Q38,35 35,45"
        stroke="#E8E8E8"
        stroke-width="2"
        fill="none"
        opacity="0.7"/>
  <path d="M40,40 Q37,30 40,25 Q43,30 40,40"
        stroke="#E8E8E8"
        stroke-width="2"
        fill="none"
        opacity="0.7"/>
  <path d="M45,45 Q42,35 45,30 Q48,35 45,45"
        stroke="#E8E8E8"
        stroke-width="2"
        fill="none"
        opacity="0.7"/>
</svg>
